<svg xmlns="http://www.w3.org/2000/svg" width="87" height="87" viewBox="0 0 87 87">
    <path fill="#EC0000" fill-rule="evenodd" d="M57.121 33.44L45.771 13.81a15.675 15.675 0 0 1-1.797-4.746l-.474.82a15.685 15.685 0 0 0 0 15.704l9.081 15.706a15.687 15.687 0 0 1 0 15.705l-.475.82a15.675 15.675 0 0 0-1.795-4.746L36.689 29.514a15.688 15.688 0 0 1-1.795-4.747l-.475.82a15.686 15.686 0 0 0-.027 15.656L43.5 56.998a15.685 15.685 0 0 1 0 15.705l-.474.82a15.667 15.667 0 0 0-1.796-4.746L29.88 49.145a15.675 15.675 0 0 1-2.091-8.533C15.637 43.782 7.25 50.513 7.25 58.307c0 10.841 16.23 19.63 36.25 19.63s36.25-8.789 36.25-19.63c0-7.794-8.386-14.527-20.539-17.697a15.666 15.666 0 0 0-2.09-7.17z"/>
</svg>
